<svg width="544.49" height="143.27" xmlns="http://www.w3.org/2000/svg" data-name="Layer 1">

 <title>logo-mak</title>
 <g>
  <title>Layer 1</title>
  <polygon id="svg_1" fill="#dd0031" points="73.81 62.13 66.76 74.47 73.81 86.8 80.89 74.47 73.81 62.13" class="cls-1"/>
  <polygon id="svg_2" fill="#40b4e5" points="60.19 125.36 66.02 114.55 66.38 102.27 60.54 113.08 60.19 125.36" class="cls-2"/>
  <polygon id="svg_3" fill="#40b4e5" points="81.28 46.66 87.1 35.83 87.46 23.56 81.64 34.36 81.28 46.66" class="cls-2"/>
  <polygon id="svg_4" fill="#40b4e5" points="47.48 120.1 55.9 111.17 59.44 99.39 51.01 108.33 47.48 120.1" class="cls-2"/>
  <polygon id="svg_5" fill="#40b4e5" points="88.22 49.53 96.65 40.59 100.18 28.82 91.75 37.75 88.22 49.53" class="cls-2"/>
  <polygon id="svg_6" fill="#40b4e5" points="36.56 111.73 47.02 105.28 53.48 94.82 43.01 101.27 36.56 111.73" class="cls-2"/>
  <polygon id="svg_7" fill="#40b4e5" points="94.19 54.11 104.64 47.65 111.09 37.2 100.63 43.64 94.19 54.11" class="cls-2"/>
  <polygon id="svg_8" fill="#40b4e5" points="28.18 100.82 39.96 97.29 48.9 88.86 37.13 92.38 28.18 100.82" class="cls-2"/>
  <polygon id="svg_9" fill="#40b4e5" points="98.76 60.07 110.53 56.53 119.47 48.12 107.7 51.63 98.76 60.07" class="cls-2"/>
  <polygon id="svg_10" fill="#40b4e5" points="22.91 88.11 35.2 87.74 46.02 81.92 33.73 82.27 22.91 88.11" class="cls-2"/>
  <polygon id="svg_11" fill="#40b4e5" points="101.63 67.02 113.92 66.66 124.73 60.83 112.46 61.18 101.63 67.02" class="cls-2"/>
  <polygon id="svg_12" fill="#40b4e5" points="21.12 74.47 33.08 77.29 45.04 74.47 33.08 71.63 21.12 74.47" class="cls-2"/>
  <polygon id="svg_13" fill="#40b4e5" points="102.61 74.47 114.58 77.29 126.53 74.47 114.58 71.63 102.61 74.47" class="cls-2"/>
  <polygon id="svg_14" fill="#40b4e5" points="22.91 60.83 33.73 66.66 46.02 67.02 35.2 61.18 22.91 60.83" class="cls-2"/>
  <polygon id="svg_15" fill="#40b4e5" points="101.63 81.92 112.46 87.75 124.73 88.1 113.92 82.28 101.63 81.92" class="cls-2"/>
  <polygon id="svg_16" fill="#40b4e5" points="28.18 48.12 37.12 56.54 48.9 60.08 39.96 51.63 28.18 48.12" class="cls-2"/>
  <polygon id="svg_17" fill="#40b4e5" points="98.75 88.86 107.7 97.29 119.47 100.82 110.53 92.38 98.75 88.86" class="cls-2"/>
  <polygon id="svg_18" fill="#40b4e5" points="36.55 37.2 43.01 47.66 53.47 54.12 47.02 43.65 36.55 37.2" class="cls-2"/>
  <polygon id="svg_19" fill="#40b4e5" points="94.17 94.82 100.63 105.28 111.09 111.73 104.65 101.28 94.17 94.82" class="cls-2"/>
  <polygon id="svg_20" fill="#40b4e5" points="47.47 28.82 50.99 40.59 59.43 49.54 55.91 37.76 47.47 28.82" class="cls-2"/>
  <polygon id="svg_21" fill="#40b4e5" points="88.22 99.4 91.74 111.18 100.17 120.1 96.65 108.34 88.22 99.4" class="cls-2"/>
  <polygon id="svg_22" fill="#40b4e5" points="60.18 23.55 60.54 35.84 66.38 46.66 66.02 34.38 60.18 23.55" class="cls-2"/>
  <polygon id="svg_23" fill="#40b4e5" points="81.27 102.28 81.64 114.56 87.46 125.37 87.11 113.09 81.27 102.28" class="cls-2"/>
  <polygon id="svg_24" fill="#40b4e5" points="70.99 33.72 73.81 45.68 76.66 33.72 73.81 21.75 70.99 33.72" class="cls-2"/>
  <polygon id="svg_25" fill="#40b4e5" points="70.99 115.22 73.81 127.17 76.66 115.22 73.81 103.25 70.99 115.22" class="cls-2"/>
  <polygon id="svg_26" fill="#40b4e5" points="102.02 25.64 107.96 18.62 111.06 9.98 105.11 16.98 102.02 25.64" class="cls-2"/>
  <polygon id="svg_27" fill="#40b4e5" points="122.66 46.28 131.31 43.17 138.32 37.23 129.66 40.33 122.66 46.28" class="cls-2"/>
  <polygon id="svg_28" fill="#40b4e5" points="9.33 37.23 16.35 43.18 24.99 46.28 17.99 40.33 9.33 37.23" class="cls-2"/>
  <polygon id="svg_29" fill="#40b4e5" points="36.59 9.98 39.69 18.63 45.63 25.64 42.54 16.98 36.59 9.98" class="cls-2"/>
  <polygon id="svg_30" fill="#40b4e5" points="72.18 9.04 73.82 18.08 75.47 9.04 73.82 0 72.18 9.04" class="cls-2"/>
  <polygon id="svg_31" fill="#40b4e5" points="47.27 134.27 45.32 143.27 50.3 135.52 52.25 126.56 47.27 134.27" class="cls-2"/>
  <polygon id="svg_32" fill="#40b4e5" points="14.75 119.8 22.92 115.59 29.1 108.8 20.92 112.98 14.75 119.8" class="cls-2"/>
  <polygon id="svg_33" fill="#40b4e5" points="0 84.19 9.17 84.63 17.92 81.83 8.75 81.37 0 84.19" class="cls-2"/>
  <polygon id="svg_34" fill="#40b4e5" points="129.72 81.82 138.48 84.63 147.65 84.19 138.91 81.38 129.72 81.82" class="cls-2"/>
  <polygon id="svg_35" fill="#40b4e5" points="118.55 108.79 124.73 115.6 132.9 119.8 126.72 112.99 118.55 108.79" class="cls-2"/>
  <polygon id="svg_36" fill="#40b4e5" points="97.35 135.54 102.32 143.26 100.37 134.28 95.4 126.56 97.35 135.54" class="cls-2"/>
  <polygon id="svg_37" fill="#231f20" points="182.23 36.74 187.37 36.74 200.74 67.54 214.12 36.74 218.99 36.74 218.99 73.44 215.57 73.44 215.57 41.09 215.47 41.09 201.47 73.44 199.97 73.44 185.76 41.09 185.65 41.09 185.65 73.44 182.23 73.44 182.23 36.74" class="cls-3"/>
  <rect id="svg_38" fill="#231f20" height="36.7" width="3.43" y="36.75" x="232.58" class="cls-3"/>
  <path id="svg_39" fill="#231f20" d="m250.94,66.66a8.69,8.69 0 0 0 3.5,3.47a10.25,10.25 0 0 0 4.89,1.14a9.63,9.63 0 0 0 3.22,-0.52a8.16,8.16 0 0 0 2.62,-1.45a7,7 0 0 0 1.77,-2.3a6.68,6.68 0 0 0 0.64,-3a5.7,5.7 0 0 0 -0.81,-3.17a6.3,6.3 0 0 0 -2.15,-2.05a16.58,16.58 0 0 0 -3,-1.37c-1.11,-0.38 -2.28,-0.76 -3.47,-1.14s-2.36,-0.82 -3.48,-1.29a11.64,11.64 0 0 1 -3,-1.9a8.22,8.22 0 0 1 -2.15,-2.93a10.32,10.32 0 0 1 -0.8,-4.35a9.46,9.46 0 0 1 1,-4.33a9.3,9.3 0 0 1 2.59,-3.17a11.59,11.59 0 0 1 3.69,-1.84a15.06,15.06 0 0 1 4.46,-0.66a14.24,14.24 0 0 1 5.54,1.08a10.51,10.51 0 0 1 4.43,3.55l-3,2.12a8.16,8.16 0 0 0 -7.16,-3.63a11.2,11.2 0 0 0 -3.16,0.45a7.89,7.89 0 0 0 -2.62,1.29a6.54,6.54 0 0 0 -1.8,2.16a6.68,6.68 0 0 0 -0.67,3.06a5.91,5.91 0 0 0 1.41,4.22a9.85,9.85 0 0 0 3.57,2.33a35.15,35.15 0 0 0 4.57,1.5a22.47,22.47 0 0 1 4.56,1.74a9.89,9.89 0 0 1 3.5,3a9,9 0 0 1 1.4,5.37a9.86,9.86 0 0 1 -0.93,4.4a9.54,9.54 0 0 1 -2.51,3.24a10.78,10.78 0 0 1 -3.66,2a14,14 0 0 1 -4.31,0.68a17.12,17.12 0 0 1 -6.69,-1.28a12.1,12.1 0 0 1 -5.24,-4.27l3.25,-2.15z" class="cls-3"/>
  <polygon id="svg_40" fill="#231f20" points="282.68 36.74 286.1 36.74 286.1 52.91 286.4 52.91 304.2 36.74 308.92 36.74 290.35 53.54 309.96 73.44 305.04 73.44 286.4 54.47 286.1 54.47 286.1 73.44 282.68 73.44 282.68 36.74" class="cls-3"/>
  <polygon id="svg_41" fill="#231f20" points="362.28 39.85 349.72 39.85 349.72 36.74 378.25 36.74 378.25 39.85 365.7 39.85 365.7 73.45 362.28 73.45 362.28 39.85" class="cls-3"/>
  <polygon id="svg_42" fill="#231f20" points="333.04 36.74 329.5 36.74 313.48 73.44 317.07 73.44 321.2 63.71 332.21 63.71 332.21 60.6 322.56 60.6 331.11 40.48 344.64 73.44 348.49 73.44 333.04 36.74" class="cls-3"/>
  <polygon id="svg_43" fill="#231f20" points="438.85 36.74 442.27 36.74 442.27 70.34 459.39 70.34 459.39 73.44 438.85 73.44 438.85 36.74" class="cls-3"/>
  <polygon id="svg_44" fill="#231f20" points="539.61 36.74 526.23 67.54 512.85 36.74 507.72 36.74 507.72 73.44 511.14 73.44 511.14 41.09 511.25 41.09 525.45 73.44 526.96 73.44 540.96 41.09 541.05 41.09 541.05 73.44 544.49 73.44 544.49 36.74 539.61 36.74" class="cls-3"/>
  <polygon id="svg_45" fill="#231f20" points="414.22 36.74 410.69 36.74 394.67 73.44 398.26 73.44 402.41 63.71 413.4 63.71 413.4 60.6 403.76 60.6 412.3 40.48 425.83 73.44 429.68 73.44 414.22 36.74" class="cls-3"/>
  <polygon id="svg_46" fill="#231f20" points="483.45 36.74 479.91 36.74 463.89 73.44 467.47 73.44 471.62 63.71 482.62 63.71 482.62 60.6 472.97 60.6 481.52 40.48 495.05 73.44 498.89 73.44 483.45 36.74" class="cls-3"/>
  <polygon id="svg_47" fill="#a6a7a7" points="182.23 95.33 184.78 95.33 184.78 103.47 185 103.47 193.33 95.33 196.9 95.33 187.79 104.03 197.51 114.17 193.78 114.17 185 104.76 184.78 104.76 184.78 114.17 182.23 114.17 182.23 95.33" class="cls-4"/>
  <path id="svg_48" fill="#a6a7a7" d="m213.46,114.65a10.27,10.27 0 0 1 -4,-0.76a9,9 0 0 1 -3.1,-2.1a9.39,9.39 0 0 1 -2,-3.14a10.85,10.85 0 0 1 0,-7.82a9.5,9.5 0 0 1 2,-3.14a9.08,9.08 0 0 1 3.1,-2.09a10.66,10.66 0 0 1 7.93,0a9.2,9.2 0 0 1 3.11,2.09a9.67,9.67 0 0 1 2,3.14a10.85,10.85 0 0 1 0,7.82a9.55,9.55 0 0 1 -2,3.14a9.13,9.13 0 0 1 -3.11,2.1a10.24,10.24 0 0 1 -4,0.76m0,-2.4a7.09,7.09 0 0 0 2.93,-0.59a6.79,6.79 0 0 0 2.23,-1.62a6.94,6.94 0 0 0 1.44,-2.37a8.55,8.55 0 0 0 0,-5.83a7.12,7.12 0 0 0 -1.44,-2.39a6.84,6.84 0 0 0 -2.23,-1.61a6.92,6.92 0 0 0 -2.93,-0.6a6.85,6.85 0 0 0 -2.92,0.6a6.93,6.93 0 0 0 -2.24,1.61a7.22,7.22 0 0 0 -1.44,2.39a8.64,8.64 0 0 0 0,5.83a7,7 0 0 0 1.51,2.33a6.87,6.87 0 0 0 2.24,1.62a7,7 0 0 0 2.92,0.63l-0.07,0z" class="cls-4"/>
  <polygon id="svg_49" fill="#a6a7a7" points="232.28 95.33 235.64 95.33 246.02 110.82 246.07 110.82 246.07 95.33 248.63 95.33 248.63 114.17 245.38 114.17 234.89 98.68 234.83 98.68 234.83 114.17 232.28 114.17 232.28 95.33" class="cls-4"/>
  <path id="svg_50" fill="#a6a7a7" d="m259.36,110.24a4.13,4.13 0 0 0 1.77,1.52a5.23,5.23 0 0 0 2.22,0.49a4.73,4.73 0 0 0 1.3,-0.2a3.7,3.7 0 0 0 1.21,-0.6a3.33,3.33 0 0 0 0.89,-1a2.57,2.57 0 0 0 0.35,-1.36a2,2 0 0 0 -0.7,-1.66a5.8,5.8 0 0 0 -1.72,-1c-0.68,-0.25 -1.42,-0.51 -2.24,-0.75a8.84,8.84 0 0 1 -2.24,-1a5,5 0 0 1 -2.41,-4.63a4.73,4.73 0 0 1 0.37,-1.76a4.66,4.66 0 0 1 1.13,-1.7a6,6 0 0 1 2,-1.29a7.23,7.23 0 0 1 2.92,-0.53a10,10 0 0 1 2.95,0.43a5.08,5.08 0 0 1 2.47,1.8l-2.07,1.88a3.55,3.55 0 0 0 -1.36,-1.19a4.25,4.25 0 0 0 -2,-0.46a5,5 0 0 0 -1.78,0.28a3.41,3.41 0 0 0 -1.13,0.72a2.58,2.58 0 0 0 -0.59,1a2.87,2.87 0 0 0 -0.17,0.93a2.36,2.36 0 0 0 0.69,1.83a5.39,5.39 0 0 0 1.72,1a20.21,20.21 0 0 0 2.24,0.73a9.26,9.26 0 0 1 2.24,0.9a5.08,5.08 0 0 1 1.71,1.54a4.58,4.58 0 0 1 0.7,2.67a5.57,5.57 0 0 1 -0.52,2.45a5.19,5.19 0 0 1 -1.4,1.83a6.12,6.12 0 0 1 -2.07,1.15a8,8 0 0 1 -2.56,0.4a9.21,9.21 0 0 1 -3.43,-0.64a5.66,5.66 0 0 1 -2.58,-2l2.09,-1.78z" class="cls-4"/>
  <path id="svg_51" fill="#a6a7a7" d="m281.13,95.33l0,11.56a7.47,7.47 0 0 0 0.24,1.82a5.11,5.11 0 0 0 0.8,1.74a4.35,4.35 0 0 0 1.46,1.31a5.27,5.27 0 0 0 4.48,0a4.38,4.38 0 0 0 1.46,-1.31a5.29,5.29 0 0 0 0.8,-1.74a7.43,7.43 0 0 0 0.25,-1.82l0,-11.56l2.55,0l0,11.94a7.59,7.59 0 0 1 -0.56,3a7,7 0 0 1 -1.55,2.34a6.58,6.58 0 0 1 -2.32,1.51a7.87,7.87 0 0 1 -5.73,0a6.61,6.61 0 0 1 -2.32,-1.51a7,7 0 0 1 -1.55,-2.34a7.69,7.69 0 0 1 -0.56,-3l0,-11.94l2.55,0z" class="cls-4"/>
  <polygon id="svg_52" fill="#a6a7a7" points="302.99 95.33 305.54 95.33 305.54 111.77 314.2 111.77 314.2 114.17 302.99 114.17 302.99 95.33" class="cls-4"/>
  <polygon id="svg_53" fill="#a6a7a7" points="323.62 97.72 317.55 97.72 317.55 95.33 332.25 95.33 332.25 97.72 326.17 97.72 326.17 114.17 323.62 114.17 323.62 97.72" class="cls-4"/>
  <polygon id="svg_54" fill="#a6a7a7" points="361.9 95.33 365.26 95.33 375.65 110.82 375.69 110.82 375.69 95.33 378.25 95.33 378.25 114.17 375 114.17 364.52 98.68 364.46 98.68 364.46 114.17 361.9 114.17 361.9 95.33" class="cls-4"/>
  <polygon id="svg_55" fill="#a6a7a7" points="346.06 95.33 343.75 95.33 335.44 114.17 338.42 114.17 344.76 98.63 344.82 98.63 351.15 114.17 354.13 114.17 346.06 95.33" class="cls-4"/>
 </g>
</svg>